<svg xmlns="http://www.w3.org/2000/svg" version="1.1" xmlns:xlink="http://www.w3.org/1999/xlink" width="1000" height="1000"><g clip-path="url(#SvgjsClipPath1070)"><rect width="1000" height="1000" fill="#000000"></rect><g transform="matrix(1.095890410958904,0,0,1.095890410958904,135.06849315068496,100)"><svg xmlns="http://www.w3.org/2000/svg" version="1.1" xmlns:xlink="http://www.w3.org/1999/xlink" width="666" height="730"><svg width="666" height="730" viewBox="0 0 666 730" fill="none" xmlns="http://www.w3.org/2000/svg">
<rect width="666" height="730" fill="black"></rect>
<g filter="url(#filter0_d_320_1417)">
<path d="M103.807 134.616C129.232 109.367 159.48 93.839 196.206 87.1833C202.427 86.055 214.908 85.0752 223.942 85.0052C273.83 84.6153 319.824 105.995 349.738 143.478C373.796 173.625 385.138 206.875 385.2 247.429C385.216 257.886 384.886 266.789 384.468 267.211C384.468 267.211 339.549 262.597 333.92 261.98V246.736C334.822 205.334 309.308 164.847 271.215 147.227C236.372 131.112 191.29 135.025 158.849 156.98C131.669 175.375 114.715 198.722 105.645 230.245C102.725 240.387 102.062 245.746 102.072 259.123C102.091 284.677 107.894 303.8 121.458 323.005C144.931 356.237 179.949 374.266 215.459 371.399C239.625 369.448 261.821 359.151 279.888 343.137L312.257 383.267C300.426 393.28 287.699 401.871 273.789 408.74C259.094 415.995 240.694 422.408 224.209 423.126C205.16 423.963 186.689 424.338 167.933 418.837C117.93 404.171 74.4093 362.151 57.988 312.683C47.2327 280.284 47.3458 239.77 58.2821 207.363C69.0006 175.602 79.6145 158.64 103.807 134.616Z" fill="url(#paint0_linear_320_1417)"></path>
<path d="M415.793 368.481C405.537 373.171 396.213 379.044 387.553 386.268L352.177 343.246C352.177 343.246 376.917 326.107 391.053 319.68C448.925 289.277 524.156 308.539 568.558 353.207C588.914 373.685 601.131 393.464 609.162 418.944C631.935 491.196 604.006 569.884 539.387 615.541C530.035 622.148 510.613 631.797 498.493 635.856C476.328 643.28 465.323 645.017 440.532 645C419.891 644.986 416.464 644.603 401.335 640.618C341.201 624.777 297.083 579.285 284.476 520.117C280.539 501.636 279.505 488.968 280.728 474.14L281.746 461.798L332.958 468.932C332.958 468.932 332.017 476.204 332.059 485.092C332.1 493.98 334.279 504.102 335.171 507.587C345.237 546.915 371.843 575.537 409.431 587.48C428.926 593.673 459.241 592.937 479.991 585.768C512.098 574.674 538.797 550.575 553.033 519.838C566.881 489.94 567.778 456.562 555.537 426.596C550.296 413.769 544.51 405.531 530.875 391.49C498.131 357.769 457.137 349.574 415.793 368.481Z" fill="url(#paint1_linear_320_1417)"></path>
<path d="M445.187 484.916C413.32 484.876 393.319 472.407 358.831 431.084C333.499 400.731 307.712 370.913 282.888 340.137C270.11 325.447 258.74 308.325 241.617 298.668C229.304 291.719 213.111 295.517 201.327 301.394C186.114 308.984 182.904 309.727 174.983 307.486C162.169 303.861 154.742 291.788 156.655 277.691C158.221 266.142 167.851 257.546 188.614 249.163C217.044 237.686 244.065 240.29 270.206 257.024C283.591 265.594 295.66 279.162 305.494 291.287C342.49 332.914 416 441 445.187 433.226C464 428.215 472.936 416.087 489.94 416.087C503.881 416.087 515.186 428.389 515.142 442.487C515.142 455.608 501.273 464.292 495.5 467.5C477.177 476.488 465 483.5 445.187 484.916Z" fill="url(#paint2_linear_320_1417)"></path>
</g>
<defs>
<filter id="filter0_d_320_1417" x="46" y="85" width="575" height="568" filterUnits="userSpaceOnUse" color-interpolation-filters="sRGB">
<feFlood flood-opacity="0" result="BackgroundImageFix"></feFlood>
<feColorMatrix in="SourceAlpha" type="matrix" values="0 0 0 0 0 0 0 0 0 0 0 0 0 0 0 0 0 0 127 0" result="hardAlpha"></feColorMatrix>
<feOffset dy="4"></feOffset>
<feGaussianBlur stdDeviation="2"></feGaussianBlur>
<feComposite in2="hardAlpha" operator="out"></feComposite>
<feColorMatrix type="matrix" values="0 0 0 0 0 0 0 0 0 0 0 0 0 0 0 0 0 0 0.25 0"></feColorMatrix>
<feBlend mode="normal" in2="BackgroundImageFix" result="effect1_dropShadow_320_1417"></feBlend>
<feBlend mode="normal" in="SourceGraphic" in2="effect1_dropShadow_320_1417" result="shape"></feBlend>
</filter>
<linearGradient id="paint0_linear_320_1417" x1="150.5" y1="501" x2="444.674" y2="241.6" gradientUnits="userSpaceOnUse">
<stop stop-color="#B7B7B6"></stop>
<stop offset="0.132428" stop-color="#EAEAEA"></stop>
<stop offset="0.452409" stop-color="#6C6C6C"></stop>
<stop offset="0.563652" stop-color="white"></stop>
<stop offset="0.682888" stop-color="#F0F0F0"></stop>
<stop offset="1" stop-color="#A7A7A7"></stop>
</linearGradient>
<linearGradient id="paint1_linear_320_1417" x1="150.5" y1="501" x2="444.674" y2="241.6" gradientUnits="userSpaceOnUse">
<stop stop-color="#B7B7B6"></stop>
<stop offset="0.132428" stop-color="#EAEAEA"></stop>
<stop offset="0.452409" stop-color="#6C6C6C"></stop>
<stop offset="0.563652" stop-color="white"></stop>
<stop offset="0.682888" stop-color="#F0F0F0"></stop>
<stop offset="1" stop-color="#A7A7A7"></stop>
</linearGradient>
<linearGradient id="paint2_linear_320_1417" x1="150.5" y1="501" x2="444.674" y2="241.6" gradientUnits="userSpaceOnUse">
<stop stop-color="#B7B7B6"></stop>
<stop offset="0.132428" stop-color="#EAEAEA"></stop>
<stop offset="0.452409" stop-color="#6C6C6C"></stop>
<stop offset="0.563652" stop-color="white"></stop>
<stop offset="0.682888" stop-color="#F0F0F0"></stop>
<stop offset="1" stop-color="#A7A7A7"></stop>
</linearGradient>
<clipPath id="SvgjsClipPath1070"><rect width="1000" height="1000" x="0" y="0" rx="350" ry="350"></rect></clipPath></defs>
</svg></svg></g></g></svg>