<svg width="575" height="568" viewBox="0 0 575 568" fill="none" xmlns="http://www.w3.org/2000/svg">
<g filter="url(#filter0_d_358_1418)">
<path d="M57.8069 49.6155C83.2319 24.3669 113.48 8.83897 150.206 2.18332C156.427 1.05501 168.908 0.0752261 177.942 0.00524188C227.83 -0.38467 273.824 20.9948 303.738 58.4778C327.796 88.6253 339.138 121.875 339.2 162.429C339.216 172.886 338.886 181.789 338.468 182.211C338.468 182.211 293.549 177.597 287.92 176.98V161.736C288.822 120.334 263.308 79.8473 225.215 62.2269C190.372 46.112 145.29 50.0254 112.849 71.9805C85.6691 90.3749 68.7148 113.722 59.6446 145.245C56.7254 155.387 56.0624 160.746 56.0723 174.123C56.0906 199.677 61.8938 218.8 75.4581 238.005C98.9308 271.237 133.949 289.266 169.459 286.399C193.625 284.448 215.821 274.151 233.888 258.137L266.257 298.267C254.426 308.28 241.699 316.871 227.789 323.74C213.094 330.995 194.694 337.408 178.209 338.126C159.16 338.963 140.689 339.338 121.933 333.837C71.9295 319.171 28.4093 277.151 11.988 227.683C1.23273 195.284 1.34582 154.77 12.2821 122.363C23.0006 90.602 33.6145 73.6401 57.8069 49.6155Z" fill="url(#paint0_linear_358_1418)"/>
<path d="M369.793 283.481C359.537 288.171 350.213 294.044 341.553 301.268L306.177 258.246C306.177 258.246 330.917 241.107 345.053 234.68C402.925 204.277 478.156 223.539 522.558 268.207C542.914 288.685 555.131 308.464 563.162 333.944C585.935 406.196 558.006 484.884 493.387 530.541C484.035 537.148 464.613 546.797 452.493 550.856C430.328 558.28 419.323 560.017 394.532 560C373.891 559.986 370.464 559.603 355.335 555.618C295.201 539.777 251.083 494.285 238.476 435.117C234.539 416.636 233.505 403.968 234.728 389.14L235.746 376.798L286.958 383.932C286.958 383.932 286.017 391.204 286.059 400.092C286.1 408.98 288.279 419.102 289.171 422.587C299.237 461.915 325.843 490.537 363.431 502.48C382.926 508.673 413.241 507.937 433.991 500.768C466.098 489.674 492.797 465.575 507.033 434.838C520.881 404.94 521.778 371.562 509.537 341.596C504.296 328.769 498.51 320.531 484.875 306.49C452.131 272.769 411.137 264.574 369.793 283.481Z" fill="url(#paint1_linear_358_1418)"/>
<path d="M399.187 399.916C367.32 399.876 347.319 387.407 312.831 346.084C287.499 315.731 261.712 285.913 236.888 255.137C224.11 240.447 212.74 223.325 195.617 213.668C183.304 206.719 167.111 210.517 155.327 216.394C140.114 223.984 136.904 224.727 128.983 222.486C116.169 218.861 108.742 206.788 110.655 192.691C112.221 181.142 121.851 172.546 142.614 164.163C171.044 152.686 198.065 155.29 224.206 172.024C237.591 180.594 249.66 194.162 259.494 206.287C296.49 247.914 370 356 399.187 348.226C418 343.215 426.936 331.087 443.94 331.087C457.881 331.087 469.186 343.389 469.142 357.487C469.142 370.608 455.273 379.292 449.5 382.5C431.177 391.488 419 398.5 399.187 399.916Z" fill="url(#paint2_linear_358_1418)"/>
</g>
<defs>
<filter id="filter0_d_358_1418" x="0" y="0" width="575" height="568" filterUnits="userSpaceOnUse" color-interpolation-filters="sRGB">
<feFlood flood-opacity="0" result="BackgroundImageFix"/>
<feColorMatrix in="SourceAlpha" type="matrix" values="0 0 0 0 0 0 0 0 0 0 0 0 0 0 0 0 0 0 127 0" result="hardAlpha"/>
<feOffset dy="4"/>
<feGaussianBlur stdDeviation="2"/>
<feComposite in2="hardAlpha" operator="out"/>
<feColorMatrix type="matrix" values="0 0 0 0 0 0 0 0 0 0 0 0 0 0 0 0 0 0 0.25 0"/>
<feBlend mode="normal" in2="BackgroundImageFix" result="effect1_dropShadow_358_1418"/>
<feBlend mode="normal" in="SourceGraphic" in2="effect1_dropShadow_358_1418" result="shape"/>
</filter>
<linearGradient id="paint0_linear_358_1418" x1="104.5" y1="416" x2="398.674" y2="156.6" gradientUnits="userSpaceOnUse">
<stop stop-color="#B7B7B6"/>
<stop offset="0.132428" stop-color="#EAEAEA"/>
<stop offset="0.452409" stop-color="#6C6C6C"/>
<stop offset="0.563652" stop-color="white"/>
<stop offset="0.682888" stop-color="#F0F0F0"/>
<stop offset="1" stop-color="#A7A7A7"/>
</linearGradient>
<linearGradient id="paint1_linear_358_1418" x1="104.5" y1="416" x2="398.674" y2="156.6" gradientUnits="userSpaceOnUse">
<stop stop-color="#B7B7B6"/>
<stop offset="0.132428" stop-color="#EAEAEA"/>
<stop offset="0.452409" stop-color="#6C6C6C"/>
<stop offset="0.563652" stop-color="white"/>
<stop offset="0.682888" stop-color="#F0F0F0"/>
<stop offset="1" stop-color="#A7A7A7"/>
</linearGradient>
<linearGradient id="paint2_linear_358_1418" x1="104.5" y1="416" x2="398.674" y2="156.6" gradientUnits="userSpaceOnUse">
<stop stop-color="#B7B7B6"/>
<stop offset="0.132428" stop-color="#EAEAEA"/>
<stop offset="0.452409" stop-color="#6C6C6C"/>
<stop offset="0.563652" stop-color="white"/>
<stop offset="0.682888" stop-color="#F0F0F0"/>
<stop offset="1" stop-color="#A7A7A7"/>
</linearGradient>
</defs>
</svg>
